<?xml version="1.0" encoding="UTF-8" standalone="no"?>
<!-- Created with Inkscape (http://www.inkscape.org/) -->

<svg
   xmlns:dc="http://purl.org/dc/elements/1.1/"
   xmlns:cc="http://creativecommons.org/ns#"
   xmlns:rdf="http://www.w3.org/1999/02/22-rdf-syntax-ns#"
   xmlns:svg="http://www.w3.org/2000/svg"
   xmlns="http://www.w3.org/2000/svg"
   xmlns:xlink="http://www.w3.org/1999/xlink"
   xmlns:sodipodi="http://sodipodi.sourceforge.net/DTD/sodipodi-0.dtd"
   xmlns:inkscape="http://www.inkscape.org/namespaces/inkscape"
   width="210mm"
   height="297mm"
   viewBox="0 0 744.09448819 1052.3622047"
   id="svg2"
   version="1.1"
   inkscape:version="0.91 r13725"
   sodipodi:docname="splash.svg">
  <defs
     id="defs4">
    <linearGradient
       inkscape:collect="always"
       id="linearGradient4314">
      <stop
         style="stop-color:#23009c;stop-opacity:1"
         offset="0"
         id="stop4316" />
      <stop
         style="stop-color:#398eff;stop-opacity:1"
         offset="1"
         id="stop4318" />
    </linearGradient>
    <linearGradient
       inkscape:collect="always"
       xlink:href="#linearGradient4314"
       id="linearGradient4320"
       x1="399.99997"
       y1="732.3623"
       x2="397.14291"
       y2="255.21935"
       gradientUnits="userSpaceOnUse"
       gradientTransform="matrix(1.464842,0,0,2.0214169,-177.31006,-544.60393)" />
    <clipPath
       id="clip0">
      <rect
         id="rect4352"
         transform="translate(142 16)"
         fill="white"
         height="50"
         width="49.9998" />
    </clipPath>
  </defs>
  <sodipodi:namedview
     id="base"
     pagecolor="#ffffff"
     bordercolor="#666666"
     borderopacity="1.0"
     inkscape:pageopacity="0.0"
     inkscape:pageshadow="2"
     inkscape:zoom="0.49497475"
     inkscape:cx="326.35734"
     inkscape:cy="610.15917"
     inkscape:document-units="px"
     inkscape:current-layer="layer1"
     showgrid="false"
     inkscape:window-width="1440"
     inkscape:window-height="804"
     inkscape:window-x="0"
     inkscape:window-y="1"
     inkscape:window-maximized="1" />
  <metadata
     id="metadata7">
    <rdf:RDF>
      <cc:Work
         rdf:about="">
        <dc:format>image/svg+xml</dc:format>
        <dc:type
           rdf:resource="http://purl.org/dc/dcmitype/StillImage" />
        <dc:title />
      </cc:Work>
    </rdf:RDF>
  </metadata>
  <g
     inkscape:label="Layer 1"
     inkscape:groupmode="layer"
     id="layer1">
    <rect
       style="opacity:0.99299999;fill:url(#linearGradient4320);fill-opacity:1;stroke:none;stroke-width:79.40000153;stroke-linecap:square;stroke-linejoin:round;stroke-miterlimit:4;stroke-dasharray:79.40000153, 79.40000153;stroke-dashoffset:0;stroke-opacity:1"
       id="rect4136"
       width="770.08838"
       height="1057.2382"
       x="-5.714282"
       y="-63.352077"
       ry="0"
       rx="0"
       inkscape:export-xdpi="286.55707"
       inkscape:export-ydpi="286.55707" />
    <flowRoot
       xml:space="preserve"
       id="flowRoot4322"
       style="font-style:normal;font-variant:normal;font-weight:600;font-stretch:normal;font-size:50px;line-height:125%;font-family:'.PingFang HK';-inkscape-font-specification:'.PingFang HK Semi-Bold';text-align:start;letter-spacing:0px;word-spacing:0px;writing-mode:lr-tb;text-anchor:start;fill:#ffffff;fill-opacity:1;stroke:none;stroke-width:1px;stroke-linecap:butt;stroke-linejoin:miter;stroke-opacity:1"
       transform="matrix(0.98600383,0,0,0.98600383,36.559558,-196.45219)"
       inkscape:export-xdpi="286.55707"
       inkscape:export-ydpi="286.55707"><flowRegion
         id="flowRegion4324"><rect
           id="rect4326"
           width="351.42856"
           height="188.57143"
           x="205.71428"
           y="440.93362"
           style="font-style:normal;font-variant:normal;font-weight:600;font-stretch:normal;font-family:'.PingFang HK';-inkscape-font-specification:'.PingFang HK Semi-Bold';fill:#ffffff" /></flowRegion><flowPara
         id="flowPara4328"
         style="font-style:normal;font-variant:normal;font-weight:bold;font-stretch:normal;font-size:89.99980164px;line-height:125%;font-family:'.SF Compact Rounded';-inkscape-font-specification:'.SF Compact Rounded, Bold';text-align:start;writing-mode:lr-tb;text-anchor:start">QUOTA</flowPara></flowRoot>    <g
       style="fill:none"
       id="g4360"
       transform="matrix(1.087417,0,0,1.087417,266.23854,372.9458)">
      <rect
         id="rect4271"
         height="82"
         width="208"
         x="0"
         y="0"
         style="fill:#000000;fill-opacity:0" />
      <rect
         id="rect4273"
         rx="16"
         height="82"
         width="208"
         x="0"
         y="0"
         style="fill:#969696" />
      <g
         id="g4275"
         clip-path="url(#clip0)">
        <rect
           id="rect4277"
           transform="translate(142,16)"
           height="50"
           width="49.999802"
           x="0"
           y="0"
           style="fill:#000000;fill-opacity:0" />
        <rect
           id="rect4279"
           transform="translate(142,16)"
           height="50.000198"
           width="49.999901"
           x="0"
           y="0"
           style="fill:#000000;fill-opacity:0" />
        <path
           id="path4281"
           d="m 182.361,38.8707 -9.145,0 c -0.2,0 -0.436,0.1412 -0.542,0.3059 l -5.48,9.0353 c -0.106,0.1647 -0.259,0.1647 -0.365,0 l -5.421,-9.0353 c -0.094,-0.1647 -0.341,-0.3059 -0.53,-0.3059 l -9.191,0 c -0.201,0 -0.26,0.1295 -0.154,0.2942 l 10.83,16.1411 c 0.106,0.1648 0.2,0.4471 0.2,0.6471 l 0,9.6941 c 0,0.1883 0.165,0.353 0.354,0.353 l 8.213,0 c 0.189,0 0.354,-0.1647 0.354,-0.353 l 0,-9.6941 c 0,-0.1882 0.094,-0.4823 0.2,-0.6471 l 10.841,-16.1411 c 0.107,-0.1647 0.036,-0.2942 -0.164,-0.2942 z"
           inkscape:connector-curvature="0"
           style="fill:#ffffff" />
        <path
           id="path4283"
           d="m 155.835,49.6118 c -0.071,-0.047 -0.201,-0.0823 -0.413,-0.0823 -4.054,-0.0118 -3.382,3.8823 -3.217,5.2941 1.379,-0.3412 5.279,-1.0706 3.842,-4.8588 -0.071,-0.1647 -0.154,-0.3059 -0.212,-0.353 z"
           inkscape:connector-curvature="0"
           style="fill:#ffffff" />
        <path
           id="path4285"
           d="m 153.525,46.7766 c 0.106,-0.2706 0.188,-0.5412 0.165,-0.6706 -0.024,-0.1294 -0.13,-0.3412 -0.342,-0.6 -4.348,-5.0353 -8.06,0.2 -9.486,1.9882 1.874,1.3412 6.894,5.3295 9.663,-0.7176 z"
           inkscape:connector-curvature="0"
           style="fill:#ffffff" />
        <path
           id="path4287"
           d="m 149.424,40.8589 c 0.13,-0.1764 0.236,-0.3529 0.247,-0.447 0.012,-0.0941 -0.035,-0.2588 -0.165,-0.4824 -2.415,-4.2823 -6.127,-1.2353 -7.506,-0.2117 1.178,1.2706 4.289,4.9294 7.424,1.1411 z"
           inkscape:connector-curvature="0"
           style="fill:#ffffff" />
        <path
           id="path4289"
           d="m 153.607,29.0824 c 0.212,-0.0118 0.413,-0.0471 0.495,-0.0941 0.083,-0.0589 0.177,-0.2 0.259,-0.4236 1.733,-4.6 -2.981,-5.4823 -4.654,-5.8823 -0.201,1.6941 -1.025,6.4235 3.9,6.4 z"
           inkscape:connector-curvature="0"
           style="fill:#ffffff" />
        <path
           id="path4291"
           d="m 160.254,27.6001 c 0.235,0.0471 0.459,0.0706 0.565,0.0235 0.106,-0.0352 0.248,-0.1647 0.401,-0.4 3.134,-4.5294 -1.768,-6.7647 -3.476,-7.6588 -0.672,1.8118 -2.84,6.7294 2.51,8.0353 z"
           inkscape:connector-curvature="0"
           style="fill:#ffffff" />
        <path
           id="path4293"
           d="m 160.949,36.9883 c 0.294,-0.0235 0.565,-0.0706 0.683,-0.1412 0.106,-0.0706 0.248,-0.2588 0.389,-0.5647 2.675,-6.0941 -3.653,-7.1647 -5.892,-7.6706 -0.401,2.2588 -1.838,8.5059 4.82,8.3765 z"
           inkscape:connector-curvature="0"
           style="fill:#ffffff" />
        <path
           id="path4295"
           d="m 166.523,42.9413 c 0.188,0.1059 0.365,0.2 0.459,0.2 0.095,0 0.259,-0.0588 0.46,-0.2 4.054,-2.7882 0.683,-6.2 -0.46,-7.4823 -1.131,1.2823 -4.513,4.6941 -0.459,7.4823 z"
           inkscape:connector-curvature="0"
           style="fill:#ffffff" />
        <path
           id="path4297"
           d="m 166.994,26.5883 c -1.143,1.2823 -4.513,4.7058 -0.46,7.4823 0.189,0.1059 0.366,0.2 0.46,0.2 0.094,0 0.259,-0.0588 0.46,-0.2 4.053,-2.7765 0.683,-6.2 -0.46,-7.4823 z"
           inkscape:connector-curvature="0"
           style="fill:#ffffff" />
        <path
           id="path4299"
           d="m 166.393,24.9059 c 0.236,0.1294 0.471,0.2353 0.589,0.2353 0.118,0 0.33,-0.0706 0.589,-0.2353 5.185,-3.3177 0.873,-7.3765 -0.589,-8.9059 -1.449,1.5294 -5.762,5.6 -0.589,8.9059 z"
           inkscape:connector-curvature="0"
           style="fill:#ffffff" />
        <path
           id="path4301"
           d="m 173.181,27.6236 c 0.106,0.0353 0.33,0.0118 0.565,-0.0235 5.35,-1.3059 3.194,-6.2236 2.51,-8.0236 -1.708,0.8942 -6.611,3.1294 -3.476,7.6589 0.165,0.2235 0.306,0.3529 0.401,0.3882 z"
           inkscape:connector-curvature="0"
           style="fill:#ffffff" />
        <path
           id="path4303"
           d="m 172.379,36.8471 c 0.106,0.0706 0.389,0.1177 0.684,0.1412 6.658,0.1294 5.22,-6.1294 4.831,-8.3765 -2.239,0.5059 -8.567,1.5765 -5.892,7.6706 0.118,0.3059 0.26,0.4941 0.377,0.5647 z"
           inkscape:connector-curvature="0"
           style="fill:#ffffff" />
        <path
           id="path4305"
           d="m 179.898,28.9765 c 0.082,0.0588 0.282,0.0823 0.495,0.0941 4.914,0.0235 4.1,-4.7059 3.9,-6.4118 -1.673,0.4118 -6.399,1.2941 -4.655,5.8824 0.095,0.247 0.189,0.3882 0.26,0.4353 z"
           inkscape:connector-curvature="0"
           style="fill:#ffffff" />
        <path
           id="path4307"
           d="m 180.935,34.5295 c -0.024,0.3412 0.011,0.5647 0.07,0.6823 0.059,0.1177 0.283,0.2824 0.531,0.4353 5.833,3.2236 7.483,-2.9764 8.19,-5.1529 -2.204,-0.5883 -8.308,-2.5883 -8.791,4.0353 z"
           inkscape:connector-curvature="0"
           style="fill:#ffffff" />
        <path
           id="path4309"
           d="m 184.493,39.9413 c -0.117,0.2118 -0.165,0.3765 -0.165,0.4824 0.012,0.0941 0.118,0.2705 0.248,0.447 3.134,3.7765 6.245,0.1177 7.424,-1.1294 -1.379,-1.0353 -5.091,-4.0824 -7.507,0.2 z"
           inkscape:connector-curvature="0"
           style="fill:#ffffff" />
        <path
           id="path4311"
           d="m 180.664,45.5177 c -0.224,0.2588 -0.33,0.4588 -0.342,0.6 -0.024,0.1294 0.059,0.4 0.165,0.6706 2.769,6.047 7.789,2.047 9.663,0.7176 -1.438,-1.8 -5.15,-7.0353 -9.486,-1.9882 z"
           inkscape:connector-curvature="0"
           style="fill:#ffffff" />
        <path
           id="path4313"
           d="m 178.578,49.5295 c -0.201,0 -0.342,0.0353 -0.413,0.0823 -0.07,0.0471 -0.141,0.1883 -0.224,0.353 -1.437,3.7882 2.463,4.5176 3.842,4.8588 0.177,-1.4118 0.849,-5.3059 -3.205,-5.2941 z"
           inkscape:connector-curvature="0"
           style="fill:#ffffff" />
        <path
           id="path4315"
           d="m 152.464,35.6589 c 0.248,-0.1647 0.472,-0.3176 0.531,-0.4353 0.058,-0.1176 0.094,-0.3529 0.07,-0.6823 -0.495,-6.6353 -6.587,-4.6353 -8.802,-4.0353 0.718,2.1764 2.368,8.3647 8.201,5.1529 z"
           inkscape:connector-curvature="0"
           style="fill:#ffffff" />
      </g>
      <rect
         id="rect4317"
         transform="translate(16,36)"
         height="27.0716"
         width="110"
         x="0"
         y="0"
         style="fill:#000000;fill-opacity:0" />
      <rect
         id="rect4319"
         transform="translate(16,36)"
         height="27.143801"
         width="110"
         x="0"
         y="0"
         style="fill:#000000;fill-opacity:0" />
      <path
         id="path4321"
         d="m 33.4667,53.0574 0,9.6672 -8.1267,0 0,-9.6672 L 16,36 l 9.3015,0 4.2559,8.1814 C 30.9825,41.5379 32.3883,38.5663 33.7363,36 l 8.9164,0 -9.186,17.0574 z"
         inkscape:connector-curvature="0"
         style="fill:#ffffff" />
      <path
         id="path4323"
         d="m 58.8484,62.7246 -7.6068,-12.4754 0,12.4754 -7.6838,0 0,-26.7246 6.9327,0 7.6068,12.2825 0,-12.2825 7.6453,0 0,26.7246 -6.8942,0 z"
         inkscape:connector-curvature="0"
         style="fill:#ffffff" />
      <path
         id="path4325"
         d="m 85.0581,57.9812 -7.8379,0 -1.5791,4.7434 -8.6659,0 L 76.7388,36 l 9.34,0 9.5325,26.7246 -9.0318,0 -1.5214,-4.7434 z m -3.9093,-12.2246 -2.0413,6.1123 4.1019,0 -2.0606,-6.1123 z"
         inkscape:connector-curvature="0"
         style="fill:#ffffff" />
      <path
         id="path4327"
         d="m 107.686,62.7246 -10.8807,0 0,-26.7246 10.3217,0 c 6.105,0 9.649,2.603 9.649,7.3464 0,2.3716 -1.214,4.2998 -3.236,5.7652 2.08,1.1762 3.39,3.5479 3.39,5.9581 0.019,4.9169 -3.447,7.6549 -9.244,7.6549 z m -1.136,-20.4966 -1.965,0 0,4.3384 2.1,0 c 1.02,0 1.925,-0.8291 1.925,-2.2945 -0.019,-1.1376 -0.77,-2.0439 -2.06,-2.0439 z m -0.174,9.8337 -1.81,0 0,4.4541 1.695,0 c 1.695,0 2.6,-0.8291 2.6,-2.1788 0,-1.4076 -0.694,-2.2753 -2.485,-2.2753 z"
         inkscape:connector-curvature="0"
         style="fill:#ffffff" />
      <path
         id="path4329"
         d="m 117.18,58.7047 c 0,-2.4618 1.964,-4.439 4.41,-4.439 2.446,0 4.41,1.9772 4.41,4.439 0,2.4619 -1.964,4.4391 -4.41,4.4391 -2.427,0 -4.41,-1.9772 -4.41,-4.4391 z"
         inkscape:connector-curvature="0"
         style="fill:#ffffff" />
      <path
         id="path4331"
         d="m 16.084,19.878 1.582,0 c 0.1633,0 0.2987,0.0397 0.406,0.119 0.112,0.0747 0.1867,0.1773 0.224,0.308 l 1.722,6.055 c 0.042,0.1493 0.0793,0.3127 0.112,0.49 0.0373,0.1727 0.0723,0.357 0.105,0.553 0.0373,-0.196 0.077,-0.3803 0.119,-0.553 0.0467,-0.1773 0.0957,-0.3407 0.147,-0.49 l 1.988,-6.055 c 0.0373,-0.1073 0.1097,-0.2053 0.217,-0.294 0.112,-0.0887 0.2473,-0.133 0.406,-0.133 l 0.553,0 c 0.1633,0 0.2987,0.0397 0.406,0.119 0.1073,0.0747 0.182,0.1773 0.224,0.308 l 1.974,6.055 c 0.1027,0.2987 0.1913,0.63 0.266,0.994 0.0327,-0.182 0.0653,-0.357 0.098,-0.525 0.0373,-0.168 0.0747,-0.3243 0.112,-0.469 l 1.722,-6.055 c 0.0327,-0.1167 0.105,-0.217 0.217,-0.301 0.112,-0.084 0.2473,-0.126 0.406,-0.126 l 1.477,0 L 27.424,30 25.723,30 23.511,23.084 c -0.028,-0.0887 -0.0583,-0.1843 -0.091,-0.287 -0.028,-0.1027 -0.056,-0.2123 -0.084,-0.329 -0.028,0.1167 -0.0583,0.2263 -0.091,0.329 -0.028,0.1027 -0.056,0.1983 -0.084,0.287 L 20.928,30 19.227,30 16.084,19.878 Z"
         inkscape:connector-curvature="0"
         style="fill:#ffffff" />
      <path
         id="path4333"
         d="m 34.4991,22.706 c 0.5367,0 1.022,0.0863 1.456,0.259 0.4387,0.1727 0.812,0.4177 1.12,0.735 0.308,0.3173 0.546,0.7047 0.714,1.162 0.168,0.4573 0.252,0.9683 0.252,1.533 0,0.5693 -0.084,1.0827 -0.252,1.54 -0.168,0.4573 -0.406,0.847 -0.714,1.169 -0.308,0.322 -0.6813,0.5693 -1.12,0.742 -0.434,0.1727 -0.9193,0.259 -1.456,0.259 -0.5366,0 -1.0243,-0.0863 -1.463,-0.259 -0.4386,-0.1727 -0.8143,-0.42 -1.127,-0.742 -0.308,-0.322 -0.5483,-0.7117 -0.721,-1.169 -0.168,-0.4573 -0.252,-0.9707 -0.252,-1.54 0,-0.5647 0.084,-1.0757 0.252,-1.533 0.1727,-0.4573 0.413,-0.8447 0.721,-1.162 0.3127,-0.3173 0.6884,-0.5623 1.127,-0.735 0.4387,-0.1727 0.9264,-0.259 1.463,-0.259 z m 0,6.069 c 0.5974,0 1.0384,-0.2007 1.323,-0.602 0.2894,-0.4013 0.434,-0.9893 0.434,-1.764 0,-0.7747 -0.1446,-1.365 -0.434,-1.771 -0.2846,-0.406 -0.7256,-0.609 -1.323,-0.609 -0.6066,0 -1.0546,0.2053 -1.344,0.616 -0.2893,0.406 -0.434,0.994 -0.434,1.764 0,0.77 0.1447,1.358 0.434,1.764 0.2894,0.4013 0.7374,0.602 1.344,0.602 z"
         inkscape:connector-curvature="0"
         style="fill:#ffffff" />
      <path
         id="path4335"
         d="m 39.5302,30 0,-7.182 1.015,0 c 0.1773,0 0.301,0.0327 0.371,0.098 0.07,0.0653 0.1166,0.1773 0.14,0.336 l 0.105,0.868 c 0.2566,-0.4433 0.5576,-0.7933 0.903,-1.05 0.3453,-0.2567 0.7326,-0.385 1.162,-0.385 0.3546,0 0.6486,0.0817 0.882,0.245 l -0.224,1.295 c -0.014,0.084 -0.0444,0.1447 -0.091,0.182 -0.0467,0.0327 -0.1097,0.049 -0.189,0.049 -0.07,0 -0.1657,-0.0163 -0.287,-0.049 -0.1214,-0.0327 -0.2824,-0.049 -0.483,-0.049 -0.3594,0 -0.6674,0.1003 -0.924,0.301 -0.2567,0.196 -0.4737,0.4853 -0.651,0.868 l 0,4.473 -1.729,0 z"
         inkscape:connector-curvature="0"
         style="fill:#ffffff" />
      <path
         id="path4337"
         d="m 47.135,19.598 0,5.957 0.322,0 c 0.1167,0 0.2077,-0.0163 0.273,-0.049 0.0653,-0.0327 0.1353,-0.0933 0.21,-0.182 l 1.785,-2.205 c 0.0793,-0.0933 0.1633,-0.1657 0.252,-0.217 0.0887,-0.056 0.2053,-0.084 0.35,-0.084 l 1.582,0 -2.233,2.667 c -0.0793,0.098 -0.161,0.189 -0.245,0.273 -0.084,0.0793 -0.175,0.1493 -0.273,0.21 0.098,0.07 0.1843,0.1517 0.259,0.245 0.0747,0.0933 0.1493,0.1937 0.224,0.301 L 52.035,30 50.474,30 c -0.1353,0 -0.2497,-0.0233 -0.343,-0.07 -0.0933,-0.0467 -0.1773,-0.126 -0.252,-0.238 l -1.827,-2.723 c -0.07,-0.1073 -0.14,-0.1773 -0.21,-0.21 -0.07,-0.0327 -0.175,-0.049 -0.315,-0.049 l -0.392,0 0,3.29 -1.729,0 0,-10.402 1.729,0 z"
         inkscape:connector-curvature="0"
         style="fill:#ffffff" />
      <path
         id="path4339"
         d="m 57.5126,24.218 c -0.0467,0.0747 -0.0957,0.1283 -0.147,0.161 -0.0513,0.028 -0.1167,0.042 -0.196,0.042 -0.084,0 -0.175,-0.0233 -0.273,-0.07 -0.0933,-0.0467 -0.203,-0.098 -0.329,-0.154 -0.126,-0.0607 -0.2707,-0.1143 -0.434,-0.161 -0.1587,-0.0467 -0.3477,-0.07 -0.567,-0.07 -0.3407,0 -0.609,0.0723 -0.805,0.217 -0.196,0.1447 -0.294,0.3337 -0.294,0.567 0,0.154 0.049,0.2847 0.147,0.392 0.1027,0.1027 0.2357,0.1937 0.399,0.273 0.168,0.0793 0.357,0.1517 0.567,0.217 0.21,0.0607 0.4247,0.1283 0.644,0.203 0.2193,0.0747 0.434,0.161 0.644,0.259 0.21,0.0933 0.3967,0.2147 0.56,0.364 0.168,0.1447 0.301,0.3197 0.399,0.525 0.1027,0.2053 0.154,0.4527 0.154,0.742 0,0.3453 -0.063,0.665 -0.189,0.959 -0.126,0.2893 -0.3103,0.5413 -0.553,0.756 -0.2427,0.21 -0.5437,0.3757 -0.903,0.497 -0.3547,0.1167 -0.763,0.175 -1.225,0.175 -0.2473,0 -0.49,-0.0233 -0.728,-0.07 -0.2333,-0.042 -0.4597,-0.1027 -0.679,-0.182 -0.2147,-0.0793 -0.4153,-0.1727 -0.602,-0.28 -0.182,-0.1073 -0.343,-0.224 -0.483,-0.35 l 0.399,-0.658 c 0.0513,-0.0793 0.112,-0.14 0.182,-0.182 0.07,-0.042 0.1587,-0.063 0.266,-0.063 0.1073,0 0.2077,0.0303 0.301,0.091 0.098,0.0607 0.21,0.126 0.336,0.196 0.126,0.07 0.273,0.1353 0.441,0.196 0.1727,0.0607 0.3897,0.091 0.651,0.091 0.2053,0 0.3803,-0.0233 0.525,-0.07 0.1493,-0.0513 0.2707,-0.1167 0.364,-0.196 0.098,-0.0793 0.168,-0.1703 0.21,-0.273 0.0467,-0.1073 0.07,-0.217 0.07,-0.329 0,-0.168 -0.0513,-0.3057 -0.154,-0.413 -0.098,-0.1073 -0.231,-0.2007 -0.399,-0.28 -0.1633,-0.0793 -0.3523,-0.1493 -0.567,-0.21 -0.21,-0.0653 -0.427,-0.1353 -0.651,-0.21 -0.2193,-0.0747 -0.4363,-0.161 -0.651,-0.259 -0.21,-0.1027 -0.399,-0.231 -0.567,-0.385 -0.1633,-0.154 -0.2963,-0.343 -0.399,-0.567 -0.098,-0.224 -0.147,-0.4947 -0.147,-0.812 0,-0.294 0.0583,-0.574 0.175,-0.84 0.1167,-0.266 0.287,-0.497 0.511,-0.693 0.2287,-0.2007 0.511,-0.3593 0.847,-0.476 0.3407,-0.1213 0.7327,-0.182 1.176,-0.182 0.4947,0 0.945,0.0817 1.351,0.245 0.406,0.1633 0.7443,0.378 1.015,0.644 l -0.392,0.623 z"
         inkscape:connector-curvature="0"
         style="fill:#ffffff" />
      <path
         id="path4341"
         d="m 61.473,22.818 1.372,0 c 0.1306,0 0.2403,0.0303 0.329,0.091 0.0886,0.0607 0.1446,0.1377 0.168,0.231 l 1.029,3.836 c 0.056,0.21 0.1003,0.4153 0.133,0.616 0.0373,0.2007 0.0723,0.4013 0.105,0.602 0.0513,-0.2007 0.105,-0.4013 0.161,-0.602 0.0606,-0.2007 0.1236,-0.406 0.189,-0.616 l 1.19,-3.85 c 0.028,-0.0933 0.084,-0.1703 0.168,-0.231 0.084,-0.0607 0.182,-0.091 0.294,-0.091 l 0.763,0 c 0.126,0 0.231,0.0303 0.315,0.091 0.084,0.0607 0.14,0.1377 0.168,0.231 l 1.176,3.92 c 0.0606,0.2007 0.1143,0.3967 0.161,0.588 0.0513,0.1867 0.1003,0.3757 0.147,0.567 0.0326,-0.2007 0.0676,-0.4013 0.105,-0.602 0.042,-0.2007 0.0933,-0.4083 0.154,-0.623 l 1.064,-3.836 c 0.0233,-0.0933 0.0793,-0.1703 0.168,-0.231 0.0886,-0.0607 0.1913,-0.091 0.308,-0.091 l 1.309,0 -2.275,7.182 -1.393,0 c -0.1494,0 -0.2567,-0.1027 -0.322,-0.308 l -1.295,-4.151 c -0.042,-0.1353 -0.0817,-0.2707 -0.119,-0.406 -0.0327,-0.14 -0.0607,-0.2777 -0.084,-0.413 -0.028,0.14 -0.0584,0.28 -0.091,0.42 -0.0327,0.1353 -0.07,0.273 -0.112,0.413 l -1.309,4.137 C 65.3836,29.8973 65.2576,30 65.071,30 l -1.323,0 -2.275,-7.182 z"
         inkscape:connector-curvature="0"
         style="fill:#ffffff" />
      <path
         id="path4343"
         d="m 75.4032,22.818 0,7.182 -1.729,0 0,-7.182 1.729,0 z m 0.259,-2.093 c 0,0.1493 -0.0303,0.2893 -0.091,0.42 -0.0607,0.1307 -0.1423,0.245 -0.245,0.343 -0.098,0.098 -0.2147,0.1773 -0.35,0.238 -0.1353,0.056 -0.28,0.084 -0.434,0.084 -0.1493,0 -0.2917,-0.028 -0.427,-0.084 -0.1307,-0.0607 -0.245,-0.14 -0.343,-0.238 -0.098,-0.098 -0.1773,-0.2123 -0.238,-0.343 -0.056,-0.1307 -0.084,-0.2707 -0.084,-0.42 0,-0.154 0.028,-0.2987 0.084,-0.434 0.0607,-0.1353 0.14,-0.252 0.238,-0.35 0.098,-0.098 0.2123,-0.175 0.343,-0.231 0.1353,-0.0607 0.2777,-0.091 0.427,-0.091 0.154,0 0.2987,0.0303 0.434,0.091 0.1353,0.056 0.252,0.133 0.35,0.231 0.1027,0.098 0.1843,0.2147 0.245,0.35 0.0607,0.1353 0.091,0.28 0.091,0.434 z"
         inkscape:connector-curvature="0"
         style="fill:#ffffff" />
      <path
         id="path4345"
         d="m 79.862,30.112 c -0.6207,0 -1.099,-0.175 -1.435,-0.525 -0.336,-0.3547 -0.504,-0.8423 -0.504,-1.463 l 0,-4.011 -0.728,0 c -0.0934,0 -0.175,-0.0303 -0.245,-0.091 -0.0654,-0.0607 -0.098,-0.1517 -0.098,-0.273 l 0,-0.686 1.155,-0.189 0.364,-1.96 c 0.0186,-0.0933 0.0606,-0.1657 0.126,-0.217 0.07,-0.0513 0.1563,-0.077 0.259,-0.077 l 0.896,0 0,2.261 1.89,0 0,1.232 -1.89,0 0,3.892 c 0,0.224 0.056,0.399 0.168,0.525 0.112,0.126 0.2613,0.189 0.448,0.189 0.1073,0 0.196,-0.0117 0.266,-0.035 0.0746,-0.028 0.1376,-0.056 0.189,-0.084 0.056,-0.028 0.105,-0.0537 0.147,-0.077 0.042,-0.028 0.084,-0.042 0.126,-0.042 0.0513,0 0.0933,0.014 0.126,0.042 0.0326,0.0233 0.0676,0.0607 0.105,0.112 l 0.518,0.84 c -0.252,0.21 -0.5414,0.3687 -0.868,0.476 -0.3267,0.1073 -0.665,0.161 -1.015,0.161 z"
         inkscape:connector-curvature="0"
         style="fill:#ffffff" />
      <path
         id="path4347"
         d="m 83.057,30 0,-10.402 1.729,0 0,3.997 c 0.28,-0.266 0.588,-0.4807 0.924,-0.644 0.336,-0.1633 0.7304,-0.245 1.183,-0.245 0.392,0 0.7397,0.0677 1.043,0.203 0.3034,0.1307 0.5554,0.3173 0.756,0.56 0.2054,0.238 0.3594,0.525 0.462,0.861 0.1074,0.3313 0.161,0.6977 0.161,1.099 l 0,4.571 -1.729,0 0,-4.571 c 0,-0.4387 -0.1026,-0.777 -0.308,-1.015 -0.2006,-0.2427 -0.504,-0.364 -0.91,-0.364 -0.2986,0 -0.5786,0.0677 -0.84,0.203 -0.2613,0.1353 -0.5086,0.3197 -0.742,0.553 l 0,5.194 -1.729,0 z"
         inkscape:connector-curvature="0"
         style="fill:#ffffff" />
    </g>
  </g>
</svg>
